<svg xmlns="http://www.w3.org/2000/svg" viewBox="0 0 1280 720" width="1280" height="720">
  <g id="background"><rect width="1280" height="720" fill="#F4F7FA" /></g>
  <g id="header"><text x="56" y="60" font-family="Microsoft YaHei, Arial, sans-serif" font-size="36" font-weight="700" fill="#0B1F3A">Fast Path删除NOP路径中的一周期固定开销</text><path fill="#1565C0" fill-opacity="0.10" d="M1095,34 H1209 A15,15 0 0 1 1224,49 V49 A15,15 0 0 1 1209,64 H1095 A15,15 0 0 1 1080,49 V49 A15,15 0 0 1 1095,34 Z" /><text x="1152" y="55" text-anchor="middle" font-family="Microsoft YaHei, Arial, sans-serif" font-size="12" font-weight="700" fill="#1565C0">EXPERIMENT 4</text><line x1="56" y1="82" x2="1224" y2="82" stroke="#D7DEE8" stroke-width="1" /></g>
  <g id="why"><path fill="#FFFFFF" stroke="#F59E0B" stroke-width="1" d="M68,112 H404 A12,12 0 0 1 416,124 V592 A12,12 0 0 1 404,604 H68 A12,12 0 0 1 56,592 V124 A12,12 0 0 1 68,112 Z" />
  <g transform="translate(84.0, 142.0) scale(2.75)" fill="#F59E0B">
    <path d="M9 7L10 0H8L2 7V9H7L6 16H8L14 9L14 7H9Z" />
  </g><text x="84" y="214" font-family="Microsoft YaHei, Arial, sans-serif" font-size="24" font-weight="700" fill="#0B1F3A">为什么做？</text><text fill="#1F2937" font-size="18" font-family="Microsoft YaHei, Arial, sans-serif" x="84" y="252">NOP不申请KMU、DMA、DCR</text><text fill="#1F2937" font-size="18" font-family="Microsoft YaHei, Arial, sans-serif" x="84" y="282">或Event资源，DECODE只承担</text><text fill="#1F2937" font-size="18" font-family="Microsoft YaHei, Arial, sans-serif" x="84" y="312">固定的一周期状态跳转。</text><text x="84" y="370" font-family="Microsoft YaHei, Arial, sans-serif" font-size="20" font-weight="700" fill="#F59E0B">机会：直接退休简单命令</text></g>
  <g id="paths"><text x="460" y="146" font-family="Microsoft YaHei, Arial, sans-serif" font-size="18" font-weight="700" fill="#5B677A">BASELINE</text><path fill="#1565C0" fill-opacity="0.14" stroke="#1565C0" d="M470,172 H620 A10,10 0 0 1 630,182 V236 A10,10 0 0 1 620,246 H470 A10,10 0 0 1 460,236 V182 A10,10 0 0 1 470,172 Z" /><text x="545" y="216" text-anchor="middle" font-family="Consolas, Courier New, monospace" font-size="18" font-weight="700" fill="#0B1F3A">IDLE</text><line x1="630" y1="209" x2="680" y2="209" stroke="#1565C0" stroke-width="3" /><polygon points="680,209 668,202 668,216" fill="#1565C0" /><path fill="#F59E0B" fill-opacity="0.14" stroke="#F59E0B" d="M696,172 H846 A10,10 0 0 1 856,182 V236 A10,10 0 0 1 846,246 H696 A10,10 0 0 1 686,236 V182 A10,10 0 0 1 696,172 Z" /><text x="771" y="216" text-anchor="middle" font-family="Consolas, Courier New, monospace" font-size="18" font-weight="700" fill="#0B1F3A">DECODE</text><line x1="856" y1="209" x2="906" y2="209" stroke="#1565C0" stroke-width="3" /><polygon points="906,209 894,202 894,216" fill="#1565C0" /><path fill="#1565C0" fill-opacity="0.14" stroke="#1565C0" d="M922,172 H1072 A10,10 0 0 1 1082,182 V236 A10,10 0 0 1 1072,246 H922 A10,10 0 0 1 912,236 V182 A10,10 0 0 1 922,172 Z" /><text x="997" y="216" text-anchor="middle" font-family="Consolas, Courier New, monospace" font-size="18" font-weight="700" fill="#0B1F3A">RETIRE</text><text x="460" y="314" font-family="Microsoft YaHei, Arial, sans-serif" font-size="18" font-weight="700" fill="#00A6A6">FAST PATH</text><path fill="#00A6A6" fill-opacity="0.14" stroke="#00A6A6" d="M470,338 H620 A10,10 0 0 1 630,348 V402 A10,10 0 0 1 620,412 H470 A10,10 0 0 1 460,402 V348 A10,10 0 0 1 470,338 Z" /><text x="545" y="382" text-anchor="middle" font-family="Consolas, Courier New, monospace" font-size="18" font-weight="700" fill="#0B1F3A">IDLE</text><line x1="630" y1="375" x2="906" y2="375" stroke="#00A6A6" stroke-width="4" /><polygon points="906,375 892,367 892,383" fill="#00A6A6" /><path fill="#00A6A6" fill-opacity="0.14" stroke="#00A6A6" d="M916,338 H1066 A10,10 0 0 1 1076,348 V402 A10,10 0 0 1 1066,412 H916 A10,10 0 0 1 906,402 V348 A10,10 0 0 1 916,338 Z" /><text x="991" y="382" text-anchor="middle" font-family="Consolas, Courier New, monospace" font-size="18" font-weight="700" fill="#0B1F3A">RETIRE</text></g>
  <g id="implementation"><path fill="#FFFFFF" stroke="#D7DEE8" stroke-width="1" d="M472,450 H1212 A12,12 0 0 1 1224,462 V592 A12,12 0 0 1 1212,604 H472 A12,12 0 0 1 460,592 V462 A12,12 0 0 1 472,450 Z" />
  <g transform="translate(486.0, 480.0) scale(2.375)" fill="#1565C0">
    <path d="M8.01005 0.858582L6.01005 14.8586L7.98995 15.1414L9.98995 1.14142L8.01005 0.858582Z" />
    <path d="M12.5 11.5L11.0858 10.0858L13.1716 8L11.0858 5.91422L12.5 4.5L16 8L12.5 11.5Z" />
    <path d="M2.82843 8L4.91421 10.0858L3.5 11.5L0 8L3.5 4.5L4.91421 5.91422L2.82843 8Z" />
  </g><text x="540" y="500" font-family="Consolas, Courier New, monospace" font-size="18" font-weight="700" fill="#0B1F3A">ENABLE_NOP_FAST_PATH</text><text x="486" y="544" font-family="Microsoft YaHei, Arial, sans-serif" font-size="17" fill="#1F2937">仅在参数开启且opcode为NOP时绕过DECODE；其他命令保持原状态机。</text><text x="486" y="576" font-family="Microsoft YaHei, Arial, sans-serif" font-size="16" font-weight="700" fill="#D64545">默认值保持0：未经整机时序联调，不改变生产配置。</text></g><g id="footer"><text x="56" y="696" font-family="Microsoft YaHei, Arial, sans-serif" font-size="12" fill="#8A94A6">代码：hw/rtl/cp/VX_cp_engine.sv</text><text x="1224" y="696" text-anchor="end" font-family="Microsoft YaHei, Arial, sans-serif" font-size="12" fill="#8A94A6">06 / 15</text></g>
</svg>