<svg xmlns="http://www.w3.org/2000/svg" viewBox="0 0 1280 720" width="1280" height="720">
  <g id="background"><rect width="1280" height="720" fill="#F4F7FA" /></g>
  <g id="header"><text x="56" y="60" font-family="Microsoft YaHei, Arial, sans-serif" font-size="36" font-weight="700" fill="#0B1F3A">Packing让64B缓存行承载多条短命令</text><path fill="#1565C0" fill-opacity="0.10" d="M1095,34 H1209 A15,15 0 0 1 1224,49 V49 A15,15 0 0 1 1209,64 H1095 A15,15 0 0 1 1080,49 V49 A15,15 0 0 1 1095,34 Z" /><text x="1152" y="55" text-anchor="middle" font-family="Microsoft YaHei, Arial, sans-serif" font-size="12" font-weight="700" fill="#1565C0">EXPERIMENT 5</text><line x1="56" y1="82" x2="1224" y2="82" stroke="#D7DEE8" stroke-width="1" /></g>
  <g id="waste"><path fill="#FFFFFF" stroke="#F59E0B" stroke-width="1" d="M68,116 H344 A12,12 0 0 1 356,128 V596 A12,12 0 0 1 344,608 H68 A12,12 0 0 1 56,596 V128 A12,12 0 0 1 68,116 Z" />
  <g transform="translate(84.0, 146.0) scale(2.625)" fill="#F59E0B">
    <path d="M13.1371 6.91018C13.4184 6.7695 13.7123 6.59981 14 6.40001V8C14 9.65685 11.3137 11 8 11C4.68629 11 2 9.65685 2 8V6.40001C2.28772 6.59981 2.58158 6.7695 2.86293 6.91018C4.28096 7.61919 6.09998 8 8 8C9.90002 8 11.719 7.61919 13.1371 6.91018Z" />
    <path d="M2 11.4V13C2 14.6569 4.68629 16 8 16C11.3137 16 14 14.6569 14 13V11.4C13.7123 11.5998 13.4184 11.7695 13.1371 11.9102C11.719 12.6192 9.90002 13 8 13C6.09998 13 4.28096 12.6192 2.86293 11.9102C2.58158 11.7695 2.28772 11.5998 2 11.4Z" />
    <path d="M8 0C11.3137 0 14 1.34315 14 3C14 4.65685 11.3137 6 8 6C4.68629 6 2 4.65685 2 3C2 1.34315 4.68629 0 8 0Z" />
  </g><text x="84" y="212" font-family="Microsoft YaHei, Arial, sans-serif" font-size="24" font-weight="700" fill="#0B1F3A">为什么做？</text><text fill="#1F2937" font-size="18" font-family="Microsoft YaHei, Arial, sans-serif" x="84" y="252">DCR_WRITE仅占20B，</text><text fill="#1F2937" font-size="18" font-family="Microsoft YaHei, Arial, sans-serif" x="84" y="282">若独占64B缓存行，</text><text fill="#1F2937" font-size="18" font-family="Microsoft YaHei, Arial, sans-serif" x="84" y="312">读取带宽浪费68.75%。</text><text x="84" y="380" font-family="Microsoft YaHei, Arial, sans-serif" font-size="40" font-weight="700" fill="#F59E0B">20 / 64 B</text></g>
  <g id="cacheline"><text x="400" y="150" font-family="Microsoft YaHei, Arial, sans-serif" font-size="19" font-weight="700" fill="#5B677A">优化后一条64B缓存行</text><rect x="400" y="178" width="236" height="86" fill="#1565C0" fill-opacity="0.16" stroke="#1565C0" /><text x="518" y="218" text-anchor="middle" font-family="Microsoft YaHei, Arial, sans-serif" font-size="17" font-weight="700" fill="#0B1F3A">DCR 0</text><text x="518" y="244" text-anchor="middle" font-family="Consolas, Courier New, monospace" font-size="15" fill="#5B677A">20B</text><rect x="636" y="178" width="236" height="86" fill="#00A6A6" fill-opacity="0.16" stroke="#00A6A6" /><text x="754" y="218" text-anchor="middle" font-family="Microsoft YaHei, Arial, sans-serif" font-size="17" font-weight="700" fill="#0B1F3A">DCR 1</text><text x="754" y="244" text-anchor="middle" font-family="Consolas, Courier New, monospace" font-size="15" fill="#5B677A">20B</text><rect x="872" y="178" width="236" height="86" fill="#F59E0B" fill-opacity="0.16" stroke="#F59E0B" /><text x="990" y="218" text-anchor="middle" font-family="Microsoft YaHei, Arial, sans-serif" font-size="17" font-weight="700" fill="#0B1F3A">DCR 2</text><text x="990" y="244" text-anchor="middle" font-family="Consolas, Courier New, monospace" font-size="15" fill="#5B677A">20B</text><rect x="1108" y="178" width="47.2" height="86" fill="#D7DEE8" fill-opacity="0.35" stroke="#D7DEE8" /><text x="1131.6" y="218" text-anchor="middle" font-family="Microsoft YaHei, Arial, sans-serif" font-size="17" font-weight="700" fill="#0B1F3A">PAD</text><text x="1131.6" y="244" text-anchor="middle" font-family="Consolas, Courier New, monospace" font-size="15" fill="#5B677A">4B</text><text x="1160" y="294" text-anchor="end" font-family="Microsoft YaHei, Arial, sans-serif" font-size="15" fill="#5B677A">最多3条20B DCR命令</text></g>
  <g id="runtime-flow"><path fill="#FFFFFF" stroke="#D7DEE8" stroke-width="1" d="M412,330 H1212 A12,12 0 0 1 1224,342 V450 A12,12 0 0 1 1212,462 H412 A12,12 0 0 1 400,450 V342 A12,12 0 0 1 412,330 Z" /><path fill="#1565C0" fill-opacity="0.12" d="M438,365 H632 A8,8 0 0 1 640,373 V419 A8,8 0 0 1 632,427 H438 A8,8 0 0 1 430,419 V373 A8,8 0 0 1 438,365 Z" /><text x="535" y="402" text-anchor="middle" font-family="Microsoft YaHei, Arial, sans-serif" font-size="18" font-weight="700" fill="#1565C0">追加命令</text><line x1="640" y1="396" x2="682" y2="396" stroke="#0B1F3A" stroke-width="2" /><polygon points="682,396 672,390 672,402" fill="#0B1F3A" /><path fill="#F59E0B" fill-opacity="0.12" d="M696,365 H890 A8,8 0 0 1 898,373 V419 A8,8 0 0 1 890,427 H696 A8,8 0 0 1 688,419 V373 A8,8 0 0 1 696,365 Z" /><text x="793" y="402" text-anchor="middle" font-family="Microsoft YaHei, Arial, sans-serif" font-size="18" font-weight="700" fill="#F59E0B">空间不足</text><line x1="898" y1="396" x2="940" y2="396" stroke="#0B1F3A" stroke-width="2" /><polygon points="940,396 930,390 930,402" fill="#0B1F3A" /><path fill="#00A6A6" fill-opacity="0.12" d="M954,365 H1148 A8,8 0 0 1 1156,373 V419 A8,8 0 0 1 1148,427 H954 A8,8 0 0 1 946,419 V373 A8,8 0 0 1 954,365 Z" /><text x="1051" y="402" text-anchor="middle" font-family="Microsoft YaHei, Arial, sans-serif" font-size="18" font-weight="700" fill="#00A6A6">补零并Flush</text></g>
  <g id="semantics"><path fill="#FFFFFF" stroke="#D7DEE8" stroke-width="1" d="M412,486 H1212 A12,12 0 0 1 1224,498 V596 A12,12 0 0 1 1212,608 H412 A12,12 0 0 1 400,596 V498 A12,12 0 0 1 412,486 Z" />
  <g transform="translate(428.0, 520.0) scale(2.125)" fill="#1565C0">
    <path d="M8.01005 0.858582L6.01005 14.8586L7.98995 15.1414L9.98995 1.14142L8.01005 0.858582Z" />
    <path d="M12.5 11.5L11.0858 10.0858L13.1716 8L11.0858 5.91422L12.5 4.5L16 8L12.5 11.5Z" />
    <path d="M2.82843 8L4.91421 10.0858L3.5 11.5L0 8L3.5 4.5L4.91421 5.91422L2.82843 8Z" />
  </g><text x="480" y="535" font-family="Consolas, Courier New, monospace" font-size="17" font-weight="700" fill="#1565C0">cp_tail_</text><text x="630" y="535" font-family="Microsoft YaHei, Arial, sans-serif" font-size="17" fill="#1F2937">每Flush一条CL增加64B</text><text x="480" y="574" font-family="Consolas, Courier New, monospace" font-size="17" font-weight="700" fill="#00A6A6">cp_expected_seqnum_</text><text x="710" y="574" font-family="Microsoft YaHei, Arial, sans-serif" font-size="17" fill="#1F2937">每加入一条命令增加1</text></g><g id="footer"><text x="56" y="696" font-family="Microsoft YaHei, Arial, sans-serif" font-size="12" fill="#8A94A6">实现：sw/runtime/common/device.cpp 与 vortex2_internal.h</text><text x="1224" y="696" text-anchor="end" font-family="Microsoft YaHei, Arial, sans-serif" font-size="12" fill="#8A94A6">08 / 15</text></g>
</svg>