<svg xmlns="http://www.w3.org/2000/svg" viewBox="0 0 1280 720" width="1280" height="720">
  <g id="background"><rect width="1280" height="720" fill="#F4F7FA" /></g>
  <g id="header"><text x="56" y="60" font-family="Microsoft YaHei, Arial, sans-serif" font-size="36" font-weight="700" fill="#0B1F3A">现有实验把后续研究推进到多队列与组合优化</text><path fill="#1565C0" fill-opacity="0.10" d="M1095,34 H1209 A15,15 0 0 1 1224,49 V49 A15,15 0 0 1 1209,64 H1095 A15,15 0 0 1 1080,49 V49 A15,15 0 0 1 1095,34 Z" /><text x="1152" y="55" text-anchor="middle" font-family="Microsoft YaHei, Arial, sans-serif" font-size="12" font-weight="700" fill="#1565C0">RESEARCH IMPACT</text><line x1="56" y1="82" x2="1224" y2="82" stroke="#D7DEE8" stroke-width="1" /></g>
  <g id="roadmap"><g id="research-stage-0"><path fill="#FFFFFF" stroke="#138A5B" stroke-width="1" d="M68,150 H392 A12,12 0 0 1 404,162 V356 A12,12 0 0 1 392,368 H68 A12,12 0 0 1 56,356 V162 A12,12 0 0 1 68,150 Z" /><circle cx="108" cy="198" r="28" fill="#138A5B" fill-opacity="0.14" />
  <g transform="translate(92.0, 182.0) scale(2.0)" fill="#138A5B">
    <path d="M15.4141 4.91424L5.99991 14.3285L0.585693 8.91424L3.41412 6.08582L5.99991 8.6716L12.5857 2.08582L15.4141 4.91424Z" />
  </g><text x="86" y="252" font-family="Microsoft YaHei, Arial, sans-serif" font-size="22" font-weight="700" fill="#138A5B">已完成：单队列前端</text><text fill="#1F2937" font-size="17" font-family="Microsoft YaHei, Arial, sans-serif" x="86" y="292">Fast Path</text><text fill="#1F2937" font-size="17" font-family="Microsoft YaHei, Arial, sans-serif" x="86" y="322">Packing · Prefetch</text><line x1="404" y1="259" x2="446" y2="259" stroke="#0B1F3A" stroke-width="3" /><polygon points="446,259 434,252 434,266" fill="#0B1F3A" /></g><g id="research-stage-1"><path fill="#FFFFFF" stroke="#F59E0B" stroke-width="1" d="M464,150 H788 A12,12 0 0 1 800,162 V356 A12,12 0 0 1 788,368 H464 A12,12 0 0 1 452,356 V162 A12,12 0 0 1 464,150 Z" /><circle cx="504" cy="198" r="28" fill="#F59E0B" fill-opacity="0.14" />
  <g transform="translate(488.0, 182.0) scale(2.0)" fill="#F59E0B">
    <path d="M5 4.79198C5.88295 4.4062 6.5 3.52516 6.5 2.5C6.5 1.11929 5.38071 0 4 0C2.61929 0 1.5 1.11929 1.5 2.5C1.5 3.52516 2.11705 4.4062 3 4.79198V11.208C2.11705 11.5938 1.5 12.4748 1.5 13.5C1.5 14.8807 2.61929 16 4 16C5.38071 16 6.5 14.8807 6.5 13.5C6.5 12.4748 5.88295 11.5938 5 11.208V9H13V4.79198C13.883 4.4062 14.5 3.52516 14.5 2.5C14.5 1.11929 13.3807 0 12 0C10.6193 0 9.5 1.11929 9.5 2.5C9.5 3.52516 10.117 4.4062 11 4.79198V7H5V4.79198Z" />
  </g><text x="482" y="252" font-family="Microsoft YaHei, Arial, sans-serif" font-size="22" font-weight="700" fill="#F59E0B">近期：共享资源公平性</text><text fill="#1F2937" font-size="17" font-family="Microsoft YaHei, Arial, sans-serif" x="482" y="292">Priority Arbitration</text><text fill="#1F2937" font-size="17" font-family="Microsoft YaHei, Arial, sans-serif" x="482" y="322">Aging · EVENT_WAIT</text><line x1="800" y1="259" x2="842" y2="259" stroke="#0B1F3A" stroke-width="3" /><polygon points="842,259 830,252 830,266" fill="#0B1F3A" /></g><g id="research-stage-2"><path fill="#FFFFFF" stroke="#1565C0" stroke-width="1" d="M860,150 H1184 A12,12 0 0 1 1196,162 V356 A12,12 0 0 1 1184,368 H860 A12,12 0 0 1 848,356 V162 A12,12 0 0 1 860,150 Z" /><circle cx="900" cy="198" r="28" fill="#1565C0" fill-opacity="0.14" />
  <g transform="translate(884.0, 182.0) scale(2.0)" fill="#1565C0">
    <path fill-rule="evenodd" clip-rule="evenodd" d="M8 4C5.79086 4 4 5.79086 4 8C4 10.2091 5.79086 12 8 12C10.2091 12 12 10.2091 12 8C12 5.79086 10.2091 4 8 4ZM6 8C6 6.89543 6.89543 6 8 6C9.10457 6 10 6.89543 10 8C10 9.10457 9.10457 10 8 10C6.89543 10 6 9.10457 6 8Z" />
    <path fill-rule="evenodd" clip-rule="evenodd" d="M8 0C3.58172 0 0 3.58172 0 8C0 12.4183 3.58172 16 8 16C12.4183 16 16 12.4183 16 8C16 3.58172 12.4183 0 8 0ZM2 8C2 4.68629 4.68629 2 8 2C11.3137 2 14 4.68629 14 8C14 11.3137 11.3137 14 8 14C4.68629 14 2 11.3137 2 8Z" />
  </g><text x="878" y="252" font-family="Microsoft YaHei, Arial, sans-serif" font-size="22" font-weight="700" fill="#1565C0">系统级：端到端验证</text><text fill="#1F2937" font-size="17" font-family="Microsoft YaHei, Arial, sans-serif" x="878" y="292">Multi-Queue</text><text fill="#1F2937" font-size="17" font-family="Microsoft YaHei, Arial, sans-serif" x="878" y="322">QMD · XRT · SimX/RTL Parity</text></g></g>
  <g id="research-assets"><path fill="#FFFFFF" stroke="#D7DEE8" stroke-width="1" d="M68,404 H1212 A12,12 0 0 1 1224,416 V596 A12,12 0 0 1 1212,608 H68 A12,12 0 0 1 56,596 V416 A12,12 0 0 1 68,404 Z" /><text x="84" y="447" font-family="Microsoft YaHei, Arial, sans-serif" font-size="22" font-weight="700" fill="#0B1F3A">对后续研究最重要的不是三个开关，而是已经建立的实验资产</text><g id="asset-0"><path fill="#1565C0" fill-opacity="0.08" d="M92,476 H322 A8,8 0 0 1 330,484 V570 A8,8 0 0 1 322,578 H92 A8,8 0 0 1 84,570 V484 A8,8 0 0 1 92,476 Z" /><text x="102" y="510" font-family="Microsoft YaHei, Arial, sans-serif" font-size="18" font-weight="700" fill="#1565C0">指标体系</text><text fill="#1F2937" font-size="15" font-family="Microsoft YaHei, Arial, sans-serif" x="102" y="542">CPC</text><text fill="#1F2937" font-size="15" font-family="Microsoft YaHei, Arial, sans-serif" x="102" y="565">流量、等待、PPA</text></g><g id="asset-1"><path fill="#00A6A6" fill-opacity="0.08" d="M370,476 H600 A8,8 0 0 1 608,484 V570 A8,8 0 0 1 600,578 H370 A8,8 0 0 1 362,570 V484 A8,8 0 0 1 370,476 Z" /><text x="380" y="510" font-family="Microsoft YaHei, Arial, sans-serif" font-size="18" font-weight="700" fill="#00A6A6">可调模型</text><text fill="#1F2937" font-size="15" font-family="Microsoft YaHei, Arial, sans-serif" x="380" y="542">AXI latency</text><text fill="#1F2937" font-size="15" font-family="Microsoft YaHei, Arial, sans-serif" x="380" y="565">FIFO depth</text></g><g id="asset-2"><path fill="#138A5B" fill-opacity="0.08" d="M648,476 H878 A8,8 0 0 1 886,484 V570 A8,8 0 0 1 878,578 H648 A8,8 0 0 1 640,570 V484 A8,8 0 0 1 648,476 Z" /><text x="658" y="510" font-family="Microsoft YaHei, Arial, sans-serif" font-size="18" font-weight="700" fill="#138A5B">正确性框架</text><text fill="#1F2937" font-size="15" font-family="Microsoft YaHei, Arial, sans-serif" x="658" y="542">seqnum</text><text fill="#1F2937" font-size="15" font-family="Microsoft YaHei, Arial, sans-serif" x="658" y="565">顺序、边界、回绕</text></g><g id="asset-3"><path fill="#F59E0B" fill-opacity="0.08" d="M926,476 H1156 A8,8 0 0 1 1164,484 V570 A8,8 0 0 1 1156,578 H926 A8,8 0 0 1 918,570 V484 A8,8 0 0 1 926,476 Z" /><text x="936" y="510" font-family="Microsoft YaHei, Arial, sans-serif" font-size="18" font-weight="700" fill="#F59E0B">组合假设</text><text fill="#1F2937" font-size="15" font-family="Microsoft YaHei, Arial, sans-serif" x="936" y="542">Packing降低流量，Prefetch隐藏剩余延迟</text></g></g><g id="footer"><text x="56" y="696" font-family="Microsoft YaHei, Arial, sans-serif" font-size="12" fill="#8A94A6">来源：Vortex CP 实验文档与仓库实测</text><text x="1224" y="696" text-anchor="end" font-family="Microsoft YaHei, Arial, sans-serif" font-size="12" fill="#8A94A6">14 / 15</text></g>
</svg>