<svg xmlns="http://www.w3.org/2000/svg" width="1120" height="520" viewBox="0 0 1120 520">
  <style>
    text { font-family: Arial, sans-serif; font-size: 13px; fill: #172026; }
    .title { font-size: 18px; font-weight: 700; }
    .lane { stroke: #8a98a8; stroke-width: 1; }
    .pulse { fill: #2f7ed8; }
    .state { fill: #19a974; }
    .event { stroke: #d64545; stroke-width: 1; stroke-dasharray: 4 4; }
    .label { font-size: 12px; fill: #394b59; }
    .note { font-size: 12px; fill: #5c6773; }
  </style>
  <text class="title" x="28" y="32">CP 实验 1：DCR_WRITE 标注时序</text>
  <text class="note" x="28" y="54">来源：results/exp01/cp_core_dcr_write.vcd；时间为 VCD timestamp。</text>

  <line class="lane" x1="150" y1="95" x2="1040" y2="95"/>
  <line class="lane" x1="150" y1="145" x2="1040" y2="145"/>
  <line class="lane" x1="150" y1="195" x2="1040" y2="195"/>
  <line class="lane" x1="150" y1="245" x2="1040" y2="245"/>
  <line class="lane" x1="150" y1="295" x2="1040" y2="295"/>
  <line class="lane" x1="150" y1="345" x2="1040" y2="345"/>
  <line class="lane" x1="150" y1="395" x2="1040" y2="395"/>
  <line class="lane" x1="150" y1="445" x2="1040" y2="445"/>

  <text x="28" y="100">tail 门铃</text>
  <text x="28" y="150">AXI AR</text>
  <text x="28" y="200">AXI R</text>
  <text x="28" y="250">unpack 命令</text>
  <text x="28" y="300">engine 状态</text>
  <text x="28" y="350">DCR 请求</text>
  <text x="28" y="400">退役</text>
  <text x="28" y="450">完成写回</text>

  <rect class="pulse" x="174" y="84" width="18" height="22"/>
  <text class="label" x="162" y="76">41 tail=0x40</text>

  <rect class="pulse" x="294" y="134" width="52" height="22"/>
  <text class="label" x="286" y="126">45 AR addr=0x1000</text>

  <rect class="pulse" x="384" y="184" width="40" height="22"/>
  <text class="label" x="374" y="176">48 R 返回</text>

  <rect class="pulse" x="474" y="234" width="42" height="22"/>
  <text class="label" x="438" y="226">51 opcode=0x04</text>

  <rect class="state" x="534" y="284" width="28" height="22"/>
  <text class="label" x="516" y="276">53 DECODE</text>
  <rect class="state" x="594" y="284" width="28" height="22"/>
  <text class="label" x="584" y="322">55 BID</text>
  <rect class="state" x="654" y="284" width="28" height="22"/>
  <text class="label" x="628" y="276">57 WAIT_DONE</text>
  <rect class="state" x="774" y="284" width="28" height="22"/>
  <text class="label" x="764" y="322">61 RETIRE</text>

  <rect class="pulse" x="594" y="334" width="28" height="22"/>
  <text class="label" x="548" y="326">55 bid/grant</text>
  <rect class="pulse" x="714" y="334" width="42" height="22"/>
  <text class="label" x="672" y="376">59 DCR 写 addr=0x123 data=0xdeadbeef</text>

  <rect class="pulse" x="774" y="384" width="42" height="22"/>
  <text class="label" x="748" y="426">61 retire_evt</text>
  <rect class="pulse" x="834" y="384" width="32" height="22"/>
  <text class="label" x="816" y="376">63 ready</text>

  <rect class="pulse" x="894" y="434" width="32" height="22"/>
  <text class="label" x="854" y="476">65 q_seqnum=1</text>
  <rect class="pulse" x="1014" y="434" width="32" height="22"/>
  <text class="label" x="952" y="426">69 AW cmpl=0x1200</text>
  <rect class="pulse" x="1054" y="434" width="40" height="22"/>
  <text class="label" x="1000" y="496">71-73 W 握手</text>

  <line class="event" x1="183" y1="68" x2="183" y2="466"/>
  <line class="event" x1="308" y1="68" x2="308" y2="466"/>
  <line class="event" x1="398" y1="68" x2="398" y2="466"/>
  <line class="event" x1="493" y1="68" x2="493" y2="466"/>
  <line class="event" x1="608" y1="68" x2="608" y2="466"/>
  <line class="event" x1="728" y1="68" x2="728" y2="466"/>
  <line class="event" x1="788" y1="68" x2="788" y2="466"/>
  <line class="event" x1="910" y1="68" x2="910" y2="466"/>
</svg>
