<svg xmlns="http://www.w3.org/2000/svg" width="820" height="500" viewBox="0 0 820 500">
  <rect width="820" height="500" fill="white"/>
  <text x="410" y="32" text-anchor="middle" font-family="sans-serif" font-size="22" font-weight="bold">实验六：AXI 延迟与命令吞吐率</text>
  <line x1="90" y1="420" x2="760" y2="420" stroke="#333" stroke-width="2"/><line x1="90" y1="60" x2="90" y2="420" stroke="#333" stroke-width="2"/>
  <g stroke="#ddd"><line x1="90" y1="330" x2="760" y2="330"/><line x1="90" y1="240" x2="760" y2="240"/><line x1="90" y1="150" x2="760" y2="150"/><line x1="90" y1="60" x2="760" y2="60"/></g>
  <g font-family="sans-serif" font-size="13" fill="#333"><text x="78" y="425" text-anchor="end">0.0</text><text x="78" y="335" text-anchor="end">0.2</text><text x="78" y="245" text-anchor="end">0.4</text><text x="78" y="155" text-anchor="end">0.6</text><text x="78" y="65" text-anchor="end">0.8</text><text x="425" y="482" text-anchor="middle">AXI Read Latency（cycles）</text><text transform="translate(22 240) rotate(-90)" text-anchor="middle">Command / Cycle</text></g>
  <g font-family="sans-serif" font-size="13" text-anchor="middle"><text x="110" y="443">1</text><text x="215" y="443">5</text><text x="320" y="443">10</text><text x="425" y="443">20</text><text x="560" y="443">50</text><text x="730" y="443">100</text></g>
  <polyline points="110,195 215,285 320,330 425,366 560,395.45 730,407.14" fill="none" stroke="#64748b" stroke-width="4"/>
  <polyline points="110,85.12 215,153.33 320,241.49 425,312.54 560,371.02 730,394.32" fill="none" stroke="#16a34a" stroke-width="4"/>
  <g fill="#64748b"><circle cx="110" cy="195" r="5"/><circle cx="215" cy="285" r="5"/><circle cx="320" cy="330" r="5"/><circle cx="425" cy="366" r="5"/><circle cx="560" cy="395.45" r="5"/><circle cx="730" cy="407.14" r="5"/></g>
  <g fill="#16a34a"><circle cx="110" cy="85.12" r="5"/><circle cx="215" cy="153.33" r="5"/><circle cx="320" cy="241.49" r="5"/><circle cx="425" cy="312.54" r="5"/><circle cx="560" cy="371.02" r="5"/><circle cx="730" cy="394.32" r="5"/></g>
  <line x1="500" y1="75" x2="545" y2="75" stroke="#64748b" stroke-width="4"/><text x="555" y="80" font-family="sans-serif" font-size="14">Baseline（depth=1）</text><line x1="500" y1="100" x2="545" y2="100" stroke="#16a34a" stroke-width="4"/><text x="555" y="105" font-family="sans-serif" font-size="14">Prefetch（depth=2）</text>
</svg>
